<?xml version="1.0" ?>
<!DOCTYPE svg  PUBLIC '-//W3C//DTD SVG 1.1//EN'  'http://www.w3.org/Graphics/SVG/1.1/DTD/svg11.dtd'>
<svg 
    version="1.1" xml:space="preserve" xmlns="http://www.w3.org/2000/svg" xmlns:xlink="http://www.w3.org/1999/xlink"
    width="500px" height="500px"
    viewBox="0 0 500 500" 
    enable-background="new 0 0 500 500" 
    >
<defs>
    <style>
        #background { display: none; }
    </style>
</defs>
<rect id="background" x="0" y="0" width="500" height="500" fill="#fefefe"/>
<path 
    clip-rule="evenodd" 
    d="M322.685,422.625V222.744h13.63  c7.539,0,13.624,6.086,13.624,13.627v127.198c0,32.614,26.441,59.056,59.057,59.056s59.056-26.441,59.056-59.056v-244.58  c0-12.813-5.27-24.347-13.717-32.617l-48.158-47.875c-8.716-8.731-22.804-8.731-31.526,0c-8.72,8.721-8.72,22.803,0,31.516  l31.259,31.347l-23.078,24.08c-7.539,7.717-7.539,20.166,0,27.894c3.717,3.993,8.723,5.901,13.717,5.812l26.077-0.088v204.512  c0,7.542-6.086,13.629-13.629,13.629c-7.542,0-13.629-6.087-13.629-13.629V236.371c0-32.615-26.437-59.054-59.052-59.054h-13.63  V68.29c0-20.077-16.266-36.34-36.344-36.34H95.548c-20.079,0-36.343,16.264-36.343,36.34v354.335h-4.543  c-12.536,0-22.713,10.175-22.713,22.715c0,12.536,10.177,22.711,22.713,22.711h272.565c12.537,0,22.711-10.175,22.711-22.711  c0-12.54-10.174-22.715-22.711-22.715H322.685z M124.621,77.376h132.646c11.08,0,19.99,8.908,19.99,19.991v96.301  c0,11.083-8.91,19.989-19.99,19.989H124.621c-11.081,0-19.989-8.907-19.989-19.989V97.367  C104.632,86.284,113.541,77.376,124.621,77.376z" 
    fill="#fff" 
    fill-rule="evenodd"
    stroke-width="10"
    stroke="#f48631" 
    />
<g fill="#f48631" text-anchor="middle" font-family="Asap" font-size="112" stroke="#f48631" stroke-width="4" stroke-linecap="round">
    <text y="350" x="192">XTL</text>
</g>
</svg>